<svg width="50" height="50" viewBox="0 0 50 50" fill="none" xmlns="http://www.w3.org/2000/svg">
<g clip-path="url(#clip0_2384_11953)">
<rect width="50" height="50" rx="25" fill="black"/>
<path d="M9.375 50.75C9.375 50.75 6.25 50.75 6.25 47.625C6.25 44.5 9.375 35.125 25 35.125C40.625 35.125 43.75 44.5 43.75 47.625C43.75 50.75 40.625 50.75 40.625 50.75H9.375ZM25 32C27.4864 32 29.871 31.0123 31.6291 29.2541C33.3873 27.496 34.375 25.1114 34.375 22.625C34.375 20.1386 33.3873 17.754 31.6291 15.9959C29.871 14.2377 27.4864 13.25 25 13.25C22.5136 13.25 20.129 14.2377 18.3709 15.9959C16.6127 17.754 15.625 20.1386 15.625 22.625C15.625 25.1114 16.6127 27.496 18.3709 29.2541C20.129 31.0123 22.5136 32 25 32Z" fill="#01ACED"/>
</g>
<defs>
<clipPath id="clip0_2384_11953">
<rect width="50" height="50" rx="25" fill="white"/>
</clipPath>
</defs>
</svg>
