<svg width="16" height="17" viewBox="0 0 16 17" fill="none" xmlns="http://www.w3.org/2000/svg">
<circle cx="8" cy="8.21094" r="8" fill="white"/>
<path d="M16 8.21094C16 10.3327 15.1571 12.3675 13.6569 13.8678C12.1566 15.3681 10.1217 16.2109 8 16.2109C5.87827 16.2109 3.84344 15.3681 2.34315 13.8678C0.842855 12.3675 0 10.3327 0 8.21094C0 6.08921 0.842855 4.05437 2.34315 2.55408C3.84344 1.05379 5.87827 0.210938 8 0.210938C10.1217 0.210938 12.1566 1.05379 13.6569 2.55408C15.1571 4.05437 16 6.08921 16 8.21094ZM5.354 4.85694C5.26011 4.76305 5.13278 4.71031 5 4.71031C4.86722 4.71031 4.73989 4.76305 4.646 4.85694C4.55211 4.95082 4.49937 5.07816 4.49937 5.21094C4.49937 5.34371 4.55211 5.47105 4.646 5.56494L7.293 8.21094L4.646 10.8569C4.59951 10.9034 4.56264 10.9586 4.53748 11.0194C4.51232 11.0801 4.49937 11.1452 4.49937 11.2109C4.49937 11.2767 4.51232 11.3418 4.53748 11.4025C4.56264 11.4633 4.59951 11.5184 4.646 11.5649C4.73989 11.6588 4.86722 11.7116 5 11.7116C5.06574 11.7116 5.13084 11.6986 5.19158 11.6735C5.25232 11.6483 5.30751 11.6114 5.354 11.5649L8 8.91794L10.646 11.5649C10.6925 11.6114 10.7477 11.6483 10.8084 11.6735C10.8692 11.6986 10.9343 11.7116 11 11.7116C11.0657 11.7116 11.1308 11.6986 11.1916 11.6735C11.2523 11.6483 11.3075 11.6114 11.354 11.5649C11.4005 11.5184 11.4374 11.4633 11.4625 11.4025C11.4877 11.3418 11.5006 11.2767 11.5006 11.2109C11.5006 11.1452 11.4877 11.0801 11.4625 11.0194C11.4374 10.9586 11.4005 10.9034 11.354 10.8569L8.707 8.21094L11.354 5.56494C11.4005 5.51845 11.4374 5.46326 11.4625 5.40252C11.4877 5.34178 11.5006 5.27668 11.5006 5.21094C11.5006 5.14519 11.4877 5.08009 11.4625 5.01935C11.4374 4.95861 11.4005 4.90343 11.354 4.85694C11.3075 4.81045 11.2523 4.77357 11.1916 4.74841C11.1308 4.72326 11.0657 4.71031 11 4.71031C10.9343 4.71031 10.8692 4.72326 10.8084 4.74841C10.7477 4.77357 10.6925 4.81045 10.646 4.85694L8 7.50394L5.354 4.85694Z" fill="#00ACED"/>
</svg>
