<svg width="17" height="16" viewBox="0 0 17 16" fill="none" xmlns="http://www.w3.org/2000/svg">
<path fill-rule="evenodd" clip-rule="evenodd" d="M15.9071 0.146887C15.9763 0.216219 16.0237 0.304361 16.0432 0.400364C16.0628 0.496367 16.0537 0.596 16.0171 0.686887L13.0791 8.03089C12.4481 7.95661 11.8084 8.01683 11.2023 8.20756C10.5962 8.3983 10.0374 8.71523 9.56256 9.13751C9.08776 9.55978 8.70777 10.0778 8.4476 10.6575C8.18744 11.2372 8.05299 11.8655 8.05311 12.5009C8.05311 13.0009 8.05311 14.0009 7.28011 12.8609L5.69011 10.3629L0.697107 7.18489L0.695107 7.18389L0.285107 6.92289C0.207509 6.87346 0.145052 6.80359 0.10461 6.72095C0.064168 6.63832 0.0473098 6.54613 0.0558908 6.45453C0.0644718 6.36293 0.0981594 6.27547 0.153245 6.20178C0.208331 6.1281 0.28268 6.07104 0.368107 6.03689L0.820107 5.85689L0.821107 5.85589L15.3671 0.0358867C15.4581 -0.000576481 15.5578 -0.00949494 15.6538 0.0102401C15.7498 0.0299751 15.8379 0.0774931 15.9071 0.146887ZM6.69011 10.0709L14.1841 2.57689L14.6551 1.39889L13.4771 1.86989L5.98311 9.36389L6.32111 9.57889C6.38313 9.61828 6.43571 9.67086 6.47511 9.73289L6.69011 10.0709Z" fill="white"/>
<path fill-rule="evenodd" clip-rule="evenodd" d="M12.5527 16C13.481 16 14.3712 15.6313 15.0276 14.9749C15.684 14.3185 16.0527 13.4283 16.0527 12.5C16.0527 11.5717 15.684 10.6815 15.0276 10.0251C14.3712 9.36875 13.481 9 12.5527 9C11.6245 9 10.7342 9.36875 10.0779 10.0251C9.42148 10.6815 9.05273 11.5717 9.05273 12.5C9.05273 13.4283 9.42148 14.3185 10.0779 14.9749C10.7342 15.6313 11.6245 16 12.5527 16ZM12.9067 10.646C12.859 10.5983 12.8021 10.5608 12.7395 10.5357C12.6768 10.5106 12.6098 10.4984 12.5423 10.4999C12.4749 10.5014 12.4084 10.5165 12.3469 10.5444C12.2855 10.5722 12.2303 10.6122 12.1847 10.662L11.0357 11.912C10.9913 11.9604 10.9569 12.0171 10.9344 12.0787C10.9119 12.1404 10.9018 12.206 10.9047 12.2716C10.9075 12.3372 10.9232 12.4016 10.9509 12.4611C10.9787 12.5206 11.0178 12.5741 11.0662 12.6185C11.1146 12.6629 11.1713 12.6973 11.233 12.7198C11.2947 12.7423 11.3602 12.7524 11.4258 12.7496C11.4914 12.7467 11.5558 12.731 11.6153 12.7033C11.6749 12.6756 11.7283 12.6364 11.7727 12.588L12.0527 12.283V14C12.0527 14.1326 12.1054 14.2598 12.1992 14.3536C12.2929 14.4473 12.4201 14.5 12.5527 14.5C12.6853 14.5 12.8125 14.4473 12.9063 14.3536C13.0001 14.2598 13.0527 14.1326 13.0527 14V12.207L13.4487 12.604C13.5426 12.6979 13.67 12.7506 13.8027 12.7506C13.9355 12.7506 14.0628 12.6979 14.1567 12.604C14.2506 12.5101 14.3034 12.3828 14.3034 12.25C14.3034 12.1172 14.2506 11.9899 14.1567 11.896L12.9067 10.646Z" fill="white"/>
</svg>
