<svg width="18" height="18" viewBox="0 0 18 18" fill="none" xmlns="http://www.w3.org/2000/svg">
<path d="M6.47461 10.874C6.64697 10.874 6.81268 10.9426 6.93457 11.0645L7.01562 11.1631C7.08637 11.2691 7.125 11.3951 7.125 11.5244C7.12491 11.6536 7.08628 11.7789 7.01562 11.8848L6.93457 11.9834L3.09473 15.8232H5.5C5.67234 15.8232 5.83807 15.8918 5.95996 16.0137C6.08186 16.1356 6.15039 16.3012 6.15039 16.4736C6.15034 16.6459 6.08169 16.8108 5.95996 16.9326C5.83806 17.0545 5.67239 17.123 5.5 17.123H1.52539C1.39625 17.123 1.27096 17.0852 1.16504 17.0146L1.06543 16.9326C0.943821 16.8108 0.875051 16.6458 0.875 16.4736V12.498C0.875103 12.3259 0.943806 12.1608 1.06543 12.0391L1.16504 11.958C1.27104 11.8873 1.39611 11.8486 1.52539 11.8486C1.69778 11.8486 1.86345 11.9172 1.98535 12.0391C2.10698 12.1608 2.17568 12.3259 2.17578 12.498V14.9033L6.01562 11.0645L6.11426 10.9834C6.2202 10.9127 6.34539 10.8741 6.47461 10.874ZM16.4756 0.873047C16.6477 0.873098 16.8128 0.941868 16.9346 1.06348L17.0166 1.16309C17.0871 1.26901 17.125 1.3943 17.125 1.52344V5.49805C17.125 5.67044 17.0565 5.83611 16.9346 5.95801C16.8127 6.07974 16.6478 6.14839 16.4756 6.14844C16.3032 6.14844 16.1375 6.07991 16.0156 5.95801C15.8938 5.83612 15.8252 5.67039 15.8252 5.49805V3.09277L11.9854 6.93262C11.8636 7.0543 11.6985 7.12292 11.5264 7.12305C11.397 7.12305 11.2711 7.08442 11.165 7.01367L11.0664 6.93262C10.9445 6.81072 10.876 6.64501 10.876 6.47266C10.8761 6.30045 10.9447 6.13549 11.0664 6.01367L14.9053 2.17383H12.5C12.3279 2.17372 12.1628 2.10502 12.041 1.9834C11.9191 1.8615 11.8506 1.69583 11.8506 1.52344C11.8506 1.35105 11.9191 1.18538 12.041 1.06348L12.1396 0.982422C12.2455 0.911814 12.3709 0.873124 12.5 0.873047H16.4756Z" fill="white" stroke="white" stroke-width="0.3"/>
</svg>
