<svg width="163" height="24" viewBox="0 0 163 24" fill="none" xmlns="http://www.w3.org/2000/svg">
<path d="M14.9151 23.9843C14.6897 23.9995 14.4673 23.9254 14.2961 23.778L7.96911 18.8612L1.6163 23.778C1.4688 23.8988 1.28875 23.9731 1.09898 23.9915C0.909214 24.0098 0.718263 23.9714 0.550335 23.8812C0.384682 23.8073 0.244299 23.6865 0.146524 23.5337C0.0487496 23.381 -0.00213342 23.2029 0.000159931 23.0216V9.72374C-0.00224393 9.59246 0.0224737 9.46211 0.0727661 9.34082C0.123058 9.21954 0.197843 9.10994 0.292441 9.01888C0.479434 8.83201 0.732984 8.72704 0.997353 8.72704C1.26172 8.72704 1.51527 8.83201 1.70227 9.01888C1.79526 9.11114 1.86899 9.22097 1.91916 9.34197C1.96934 9.46298 1.99496 9.59275 1.99455 9.72374V20.8984L7.35016 16.7724C7.52872 16.6385 7.7459 16.5661 7.96911 16.5661C8.19272 16.5635 8.41071 16.6361 8.58805 16.7724L13.9179 20.8984V9.72374C13.9155 9.59246 13.9402 9.46211 13.9905 9.34082C14.0408 9.21954 14.1156 9.10994 14.2102 9.01888C14.3018 8.9251 14.4116 8.85086 14.5327 8.80063C14.6539 8.75041 14.7839 8.72523 14.9151 8.72662C15.1781 8.72888 15.4295 8.83494 15.6146 9.02169C15.7998 9.20844 15.9037 9.46077 15.9037 9.72374V22.9872C15.9056 23.1674 15.8556 23.3443 15.7595 23.4967C15.6635 23.6492 15.5255 23.7707 15.3621 23.8468C15.226 23.9271 15.0728 23.9742 14.9151 23.9843Z" fill="white"/>
<path d="M28.3093 23.9814C27.29 23.9855 26.2806 23.7807 25.3435 23.3797C24.4408 22.9955 23.6207 22.441 22.9279 21.7464C21.8661 20.6692 21.1462 19.3022 20.8587 17.8173C20.5712 16.3323 20.7288 14.7955 21.3118 13.3998C22.0727 11.5758 23.521 10.1245 25.3435 9.35977C26.2794 8.9547 27.2896 8.74974 28.3093 8.75806C29.225 8.75561 30.1337 8.91869 30.9914 9.23943C31.8164 9.54726 32.5836 9.99188 33.2609 10.5546C33.946 11.1239 34.5277 11.8073 34.9802 12.5746C35.4296 13.3711 35.7214 14.2466 35.8398 15.1534C35.8755 15.3047 35.8729 15.4625 35.8324 15.6125C35.7919 15.7626 35.7147 15.9002 35.6077 16.013C35.5239 16.1343 35.4103 16.232 35.2778 16.2967C35.1454 16.3615 34.9984 16.391 34.8512 16.3826H22.713C22.7048 17.1395 22.8572 17.8895 23.16 18.5832C23.4438 19.2477 23.8524 19.8517 24.3635 20.3625C24.87 20.8731 25.4677 21.2843 26.1258 21.5745C26.8153 21.8716 27.5585 22.0238 28.3093 22.0215C29.1742 22.0213 30.0274 21.8213 30.8023 21.437C31.587 21.0498 32.2656 20.4775 32.7795 19.7694C32.8912 19.6061 33.003 19.4341 33.1061 19.2536C33.2093 19.0731 33.3039 18.8926 33.3984 18.7035C33.4513 18.5824 33.5292 18.4738 33.6269 18.3849C33.7247 18.296 33.8402 18.2288 33.9658 18.1877C34.2143 18.0891 34.491 18.0891 34.7395 18.1877C34.8602 18.2427 34.9688 18.3211 35.0589 18.4186C35.1489 18.516 35.2186 18.6304 35.2639 18.7551C35.319 18.8766 35.3474 19.0085 35.3474 19.1419C35.3474 19.2753 35.319 19.4072 35.2639 19.5287C35.0306 20.0399 34.7424 20.5241 34.4042 20.9728C33.6911 21.9091 32.77 22.6668 31.7137 23.1859C30.6574 23.7051 29.4949 23.9715 28.3179 23.9642L28.3093 23.9814ZM23.1514 14.2594H33.5274C33.1179 13.2338 32.4115 12.3538 31.4986 11.7322C30.5654 11.0943 29.4612 10.7531 28.3308 10.7531C27.2004 10.7531 26.0962 11.0943 25.163 11.7322C24.2604 12.3584 23.5634 13.2377 23.16 14.2594H23.1514Z" fill="white"/>
<path d="M48.3037 8.75935C49.3262 8.75109 50.3392 8.95602 51.2781 9.36106C52.1819 9.74393 53.0046 10.2953 53.7023 10.9857C54.3932 11.6815 54.9472 12.5008 55.3356 13.4011C55.7258 14.3412 55.9267 15.3489 55.9267 16.3667C55.9267 17.3845 55.7258 18.3923 55.3356 19.3323C54.9515 20.2349 54.3969 21.055 53.7023 21.7477C53.0054 22.4412 52.1826 22.9955 51.2781 23.3809C50.338 23.782 49.3258 23.9867 48.3037 23.9827C47.2268 23.9924 46.1611 23.7634 45.1832 23.3122C44.2356 22.8742 43.3829 22.2552 42.673 21.4898V22.9683C42.6753 23.0993 42.6517 23.2294 42.6037 23.3513C42.5557 23.4731 42.4841 23.5843 42.3931 23.6785C42.3021 23.7727 42.1935 23.848 42.0733 23.9002C41.9532 23.9524 41.824 23.9804 41.693 23.9827C41.5633 23.9829 41.4349 23.9571 41.3153 23.907C41.1957 23.8568 41.0874 23.7831 40.9967 23.6904C40.9049 23.5977 40.8325 23.4876 40.7837 23.3666C40.735 23.2455 40.711 23.116 40.713 22.9855V0.997263C40.711 0.866806 40.735 0.737259 40.7837 0.61622C40.8325 0.495182 40.9049 0.385089 40.9967 0.292401C41.0861 0.198048 41.1942 0.123338 41.3141 0.0730228C41.434 0.0227073 41.563 -0.00211285 41.693 0.000140812C41.8217 -0.00197162 41.9494 0.0229498 42.0679 0.0732933C42.1863 0.123637 42.2929 0.198282 42.3807 0.292401C42.4753 0.383459 42.5501 0.49306 42.6004 0.614344C42.6507 0.735629 42.6754 0.865988 42.673 0.997263V11.1748C43.391 10.4452 44.2434 9.86139 45.1832 9.45561C46.1607 9.00028 47.2254 8.76271 48.3037 8.75935ZM48.3037 21.9884C49.0573 21.9914 49.8035 21.8392 50.4958 21.5414C51.1564 21.2512 51.757 20.8401 52.2667 20.3294C52.7794 19.8214 53.1907 19.2204 53.4788 18.5587C53.7737 17.867 53.9257 17.1229 53.9257 16.371C53.9257 15.6191 53.7737 14.875 53.4788 14.1833C53.1888 13.5201 52.7777 12.9167 52.2667 12.404C51.7617 11.8911 51.1674 11.4746 50.513 11.1748C49.8213 10.8799 49.0771 10.728 48.3252 10.728C47.5733 10.728 46.8291 10.8799 46.1374 11.1748C45.4763 11.465 44.8734 11.8727 44.3579 12.3782C43.8495 12.8913 43.4413 13.4947 43.1544 14.1576C42.8595 14.8492 42.7076 15.5933 42.7076 16.3452C42.7076 17.0971 42.8595 17.8412 43.1544 18.5329C43.4394 19.1942 43.8478 19.7952 44.3579 20.3036C44.8707 20.8146 45.4741 21.2256 46.1374 21.5156C46.8248 21.8223 47.5682 21.9833 48.3209 21.9884H48.3037Z" fill="white"/>
<path d="M62.0151 1.89083C62.2006 1.88833 62.3847 1.92362 62.5561 1.99455C62.7276 2.06549 62.8828 2.17058 63.0123 2.30343C63.146 2.43231 63.2516 2.58739 63.3226 2.75896C63.3936 2.93053 63.4284 3.11491 63.4249 3.30055C63.4306 3.48648 63.3967 3.6715 63.3256 3.84338C63.2545 4.01526 63.1477 4.1701 63.0123 4.29768C62.7445 4.55493 62.3864 4.6969 62.0151 4.69309C61.8337 4.69552 61.6536 4.6618 61.4853 4.59392C61.3171 4.52603 61.164 4.42532 61.0351 4.29768C60.9058 4.16994 60.8041 4.01711 60.7361 3.84859C60.6681 3.68007 60.6353 3.49942 60.6397 3.31775C60.6326 3.13061 60.664 2.944 60.732 2.76952C60.8 2.59503 60.9032 2.43639 61.0351 2.30343C61.1607 2.17024 61.3128 2.06474 61.4815 1.99369C61.6503 1.92264 61.832 1.8876 62.0151 1.89083ZM62.0151 8.76754C62.1386 8.76646 62.2609 8.79201 62.3736 8.84244C62.4864 8.89288 62.5869 8.96701 62.6684 9.0598C62.8432 9.23943 62.9418 9.47966 62.9435 9.73027V23.0195C62.9458 23.1467 62.9227 23.273 62.8754 23.3911C62.8282 23.5092 62.7578 23.6167 62.6684 23.7072C62.5837 23.7947 62.4822 23.8643 62.3699 23.9115C62.2576 23.9588 62.1369 23.9829 62.0151 23.9822C61.8878 23.9855 61.7611 23.9628 61.6429 23.9155C61.5247 23.8683 61.4173 23.7974 61.3274 23.7072C61.238 23.6167 61.1676 23.5092 61.1204 23.3911C61.0731 23.273 61.05 23.1467 61.0523 23.0195V9.6873C61.054 9.43669 61.1526 9.19645 61.3274 9.01682C61.4152 8.9227 61.5218 8.84805 61.6402 8.79771C61.7587 8.74736 61.8864 8.72244 62.0151 8.72456V8.76754Z" fill="white"/>
<path d="M76.8349 8.727C77.6489 8.72411 78.4552 8.88383 79.2066 9.19676C79.958 9.50969 80.6393 9.96954 81.2106 10.5493C81.7705 11.1254 82.2167 11.802 82.5258 12.5436C82.8467 13.3053 83.0105 14.1239 83.0072 14.9504V22.9532C83.0073 23.2147 82.9046 23.4657 82.7213 23.6522C82.538 23.8388 82.2887 23.9458 82.0272 23.9503C81.7604 23.9497 81.5043 23.8448 81.3137 23.658C81.2173 23.5661 81.1409 23.4553 81.0891 23.3326C81.0374 23.2099 81.0114 23.0778 81.0128 22.9446V14.9246C81.0186 14.095 80.7761 13.2825 80.3165 12.5917C79.857 11.9009 79.2013 11.3633 78.4339 11.0479C77.92 10.8303 77.3673 10.7191 76.8092 10.7212C76.2484 10.7208 75.6932 10.8318 75.1758 11.0479C74.6721 11.2527 74.2142 11.5558 73.829 11.9395C73.4438 12.3232 73.1389 12.7799 72.9321 13.2828C72.7167 13.8034 72.6057 14.3612 72.6055 14.9246V22.979C72.6086 23.1116 72.5842 23.2435 72.5339 23.3662C72.4836 23.489 72.4085 23.6001 72.3132 23.6924C72.1748 23.8379 71.9956 23.9381 71.7993 23.98C71.6029 24.022 71.3984 24.0037 71.2127 23.9275C71.0269 23.8513 70.8684 23.7209 70.758 23.5532C70.6476 23.3854 70.5904 23.1883 70.5939 22.9876V9.7585C70.5916 9.62838 70.6153 9.4991 70.6635 9.37822C70.7117 9.25734 70.7836 9.14727 70.8748 9.05445C70.966 8.96162 71.0748 8.8879 71.1949 8.83758C71.3149 8.78727 71.4437 8.76136 71.5739 8.76138C71.7081 8.75657 71.8417 8.78011 71.9661 8.83047C72.0906 8.88083 72.203 8.95688 72.296 9.05364C72.3901 9.14143 72.4648 9.248 72.5151 9.36646C72.5655 9.48492 72.5904 9.61262 72.5883 9.74131V10.3516C73.1403 9.83466 73.7848 9.42639 74.4881 9.1482C75.2367 8.86054 76.0331 8.71761 76.8349 8.727Z" fill="white"/>
<path d="M95.5165 23.9814C94.4944 23.9854 93.4822 23.7807 92.5421 23.3797C91.6394 22.9955 90.8192 22.441 90.1265 21.7464C89.0704 20.6654 88.357 19.2967 88.0756 17.8119C87.7943 16.3271 87.9574 14.7923 88.5447 13.3998C89.3056 11.5758 90.7539 10.1245 92.5765 9.35976C93.5154 8.95473 94.5284 8.7498 95.5509 8.75805C96.6154 8.75389 97.6691 8.97192 98.6446 9.3982C99.6201 9.82448 100.496 10.4496 101.216 11.2337C101.395 11.4371 101.487 11.7023 101.474 11.9729C101.471 12.11 101.436 12.2446 101.374 12.3666C101.311 12.4887 101.222 12.595 101.113 12.6778C100.915 12.8549 100.656 12.9475 100.391 12.9357C100.26 12.9313 100.131 12.9001 100.013 12.8439C99.8945 12.7877 99.789 12.7077 99.703 12.609C99.1883 12.017 98.5481 11.5472 97.8289 11.2337C97.1118 10.915 96.3356 10.751 95.5509 10.7523C94.7995 10.7442 94.0551 10.8966 93.3674 11.1993C92.7088 11.4895 92.1088 11.8973 91.5965 12.4027C91.088 12.9158 90.6799 13.5192 90.393 14.1821C90.0981 14.8737 89.9461 15.6178 89.9461 16.3697C89.9461 17.1216 90.0981 17.8657 90.393 18.5574C90.6779 19.2187 91.0864 19.8197 91.5965 20.3281C92.1061 20.8389 92.7067 21.2499 93.3674 21.5401C94.0563 21.8389 94.7999 21.9911 95.5509 21.9871C95.6813 21.9851 95.8109 22.0091 95.9319 22.0579C96.053 22.1066 96.1631 22.179 96.2558 22.2708C96.3503 22.3672 96.4248 22.4815 96.475 22.6069C96.5252 22.7323 96.55 22.8664 96.5481 23.0014C96.5435 23.2629 96.4365 23.5121 96.25 23.6954C96.0634 23.8787 95.8124 23.9814 95.5509 23.9814H95.5165Z" fill="white"/>
<path d="M113.912 23.9813C112.892 23.9853 111.883 23.7806 110.946 23.3795C109.125 22.6019 107.675 21.1516 106.897 19.3309C106.5 18.3926 106.295 17.3842 106.295 16.3653C106.295 15.3464 106.5 14.338 106.897 13.3997C107.285 12.4994 107.839 11.6801 108.53 10.9843C109.223 10.2923 110.043 9.74067 110.946 9.35966C111.884 8.96248 112.893 8.75781 113.912 8.75781C114.93 8.75781 115.939 8.96248 116.877 9.35966C117.777 9.74493 118.597 10.2961 119.293 10.9843C119.984 11.6782 120.536 12.4981 120.918 13.3997C121.315 14.338 121.52 15.3464 121.52 16.3653C121.52 17.3842 121.315 18.3926 120.918 19.3309C120.54 20.2348 119.988 21.0555 119.293 21.7463C118.607 22.4336 117.8 22.9874 116.912 23.3795C115.964 23.7842 114.942 23.9891 113.912 23.9813ZM113.912 10.7522C113.171 10.7416 112.436 10.8851 111.754 11.1734C111.095 11.4636 110.495 11.8714 109.983 12.3768C109.472 12.8895 109.061 13.4929 108.771 14.1562C108.476 14.8478 108.324 15.5919 108.324 16.3438C108.324 17.0957 108.476 17.8398 108.771 18.5315C109.059 19.1932 109.47 19.7942 109.983 20.3022C110.49 20.8222 111.091 21.2421 111.754 21.54C112.446 21.8349 113.19 21.9869 113.942 21.9869C114.694 21.9869 115.438 21.8349 116.129 21.54C116.793 21.25 117.396 20.839 117.909 20.328C118.419 19.8196 118.827 19.2186 119.112 18.5573C119.407 17.8656 119.559 17.1215 119.559 16.3696C119.559 15.6177 119.407 14.8736 119.112 14.1819C118.826 13.5191 118.417 12.9156 117.909 12.4026C117.393 11.8971 116.791 11.4893 116.129 11.1992C115.431 10.8924 114.674 10.7399 113.912 10.7522Z" fill="white"/>
<path d="M126.231 16.3323C126.225 15.3137 126.426 14.3046 126.824 13.3667C127.212 12.4664 127.766 11.647 128.457 10.9512C129.155 10.2608 129.977 9.70949 130.881 9.32662C131.82 8.92158 132.833 8.71665 133.856 8.72491C134.934 8.71733 136.002 8.94312 136.985 9.38679C137.919 9.81154 138.758 10.4195 139.452 11.1747V0.997207C139.451 0.864503 139.478 0.733042 139.531 0.611527C139.584 0.490012 139.663 0.381217 139.761 0.292344C139.853 0.19857 139.963 0.12433 140.084 0.0741015C140.205 0.0238725 140.335 -0.00130594 140.466 8.41062e-05C140.596 -0.00164863 140.725 0.0234087 140.845 0.0736928C140.965 0.123977 141.073 0.198409 141.163 0.292344C141.255 0.385033 141.327 0.495125 141.376 0.616164C141.424 0.737202 141.448 0.86675 141.446 0.997207V22.9855C141.449 23.1156 141.425 23.2449 141.377 23.3658C141.329 23.4866 141.257 23.5967 141.166 23.6895C141.074 23.7824 140.965 23.8561 140.845 23.9064C140.725 23.9567 140.597 23.9826 140.466 23.9826C140.202 23.9816 139.949 23.8766 139.761 23.6903C139.663 23.6015 139.584 23.4927 139.531 23.3712C139.478 23.2496 139.451 23.1182 139.452 22.9855V21.507C138.758 22.2668 137.919 22.8805 136.985 23.3121C136.007 23.7625 134.941 23.9915 133.864 23.9826C132.845 23.9867 131.836 23.7819 130.899 23.3809C129.078 22.6032 127.627 21.1529 126.85 19.3322C126.437 18.3861 126.226 17.3644 126.231 16.3323ZM128.216 16.3323C128.213 17.0858 128.366 17.832 128.663 18.5242C128.951 19.186 129.363 19.7869 129.876 20.295C130.385 20.8057 130.986 21.2168 131.646 21.507C132.339 21.8048 133.085 21.9569 133.839 21.954C134.589 21.958 135.333 21.8057 136.022 21.507C136.685 21.217 137.289 20.806 137.801 20.295C138.312 19.7866 138.72 19.1856 139.005 18.5242C139.3 17.8326 139.452 17.0884 139.452 16.3366C139.452 15.5847 139.3 14.8406 139.005 14.1489C138.718 13.4861 138.31 12.8826 137.801 12.3696C137.286 11.8641 136.683 11.4563 136.022 11.1661C135.334 10.8634 134.59 10.711 133.839 10.7192C133.084 10.7119 132.337 10.8642 131.646 11.1661C130.988 11.4564 130.388 11.8642 129.876 12.3696C129.364 12.8823 128.953 13.4857 128.663 14.1489C128.366 14.8384 128.214 15.5815 128.216 16.3323Z" fill="white"/>
<path d="M154.917 23.9814C153.895 23.9854 152.883 23.7807 151.943 23.3796C150.122 22.6082 148.675 21.1552 147.911 19.331C147.521 18.391 147.32 17.3832 147.32 16.3654C147.32 15.3476 147.521 14.3399 147.911 13.3998C148.294 12.5004 148.842 11.681 149.527 10.9844C150.221 10.2924 151.041 9.74077 151.943 9.35976C152.882 8.95473 153.895 8.7498 154.917 8.75805C155.83 8.75494 156.736 8.91805 157.591 9.23942C159.261 9.85 160.662 11.0313 161.545 12.5746C161.995 13.3712 162.286 14.2467 162.405 15.1534C162.44 15.3054 162.436 15.4636 162.394 15.6137C162.352 15.7638 162.273 15.901 162.164 16.013C162.081 16.1343 161.967 16.232 161.834 16.2967C161.702 16.3615 161.555 16.391 161.408 16.3826H149.313C149.309 17.139 149.461 17.8882 149.76 18.5831C150.336 19.9215 151.399 20.9908 152.734 21.5745C153.423 21.8733 154.167 22.0255 154.917 22.0215C155.78 22.0222 156.63 21.822 157.402 21.437C158.188 21.0522 158.867 20.4794 159.379 19.7694C159.498 19.6039 159.607 19.4317 159.706 19.2536C159.809 19.0731 159.912 18.8926 159.998 18.7035C160.053 18.5841 160.132 18.4769 160.23 18.3884C160.327 18.2998 160.441 18.2316 160.565 18.1877C160.819 18.0981 161.097 18.1109 161.341 18.2233C161.585 18.3356 161.775 18.5388 161.872 18.7894C161.925 18.9115 161.952 19.0432 161.952 19.1763C161.952 19.3093 161.925 19.441 161.872 19.5631C161.642 20.076 161.354 20.5606 161.012 21.0072C160.3 21.9423 159.38 22.6993 158.326 23.2184C157.271 23.7375 156.11 24.0046 154.935 23.9986L154.917 23.9814ZM149.76 14.2594H160.136C159.729 13.2319 159.022 12.351 158.107 11.7322C157.174 11.0943 156.069 10.7531 154.939 10.7531C153.809 10.7531 152.704 11.0943 151.771 11.7322C150.865 12.3571 150.165 13.2366 149.76 14.2594Z" fill="white"/>
</svg>
