<svg width="18" height="18" viewBox="0 0 18 18" fill="none" xmlns="http://www.w3.org/2000/svg">
<path d="M2.41398 3.21146C2.36168 3.15916 2.3202 3.09707 2.2919 3.02874C2.26359 2.96041 2.24902 2.88717 2.24902 2.81321C2.24902 2.73925 2.26359 2.66601 2.2919 2.59768C2.3202 2.52935 2.36168 2.46726 2.41398 2.41496C2.46628 2.36266 2.52837 2.32118 2.5967 2.29287C2.66503 2.26457 2.73827 2.25 2.81223 2.25C2.8862 2.25 2.95943 2.26457 3.02777 2.29287C3.0961 2.32118 3.15819 2.36266 3.21048 2.41496L8.99973 8.20534L14.789 2.41496C14.8413 2.36266 14.9034 2.32118 14.9717 2.29287C15.04 2.26457 15.1133 2.25 15.1872 2.25C15.2612 2.25 15.3344 2.26457 15.4028 2.29287C15.4711 2.32118 15.5332 2.36266 15.5855 2.41496C15.6378 2.46726 15.6793 2.52935 15.7076 2.59768C15.7359 2.66601 15.7504 2.73925 15.7504 2.81321C15.7504 2.88717 15.7359 2.96041 15.7076 3.02874C15.6793 3.09707 15.6378 3.15916 15.5855 3.21146L9.79511 9.00071L15.5855 14.79C15.6378 14.8423 15.6793 14.9043 15.7076 14.9727C15.7359 15.041 15.7504 15.1142 15.7504 15.1882C15.7504 15.2622 15.7359 15.3354 15.7076 15.4037C15.6793 15.4721 15.6378 15.5342 15.5855 15.5865C15.5332 15.6388 15.4711 15.6802 15.4028 15.7085C15.3344 15.7369 15.2612 15.7514 15.1872 15.7514C15.1133 15.7514 15.04 15.7369 14.9717 15.7085C14.9034 15.6802 14.8413 15.6388 14.789 15.5865L8.99973 9.79608L3.21048 15.5865C3.15819 15.6388 3.0961 15.6802 3.02777 15.7085C2.95943 15.7369 2.8862 15.7514 2.81223 15.7514C2.73827 15.7514 2.66503 15.7369 2.5967 15.7085C2.52837 15.6802 2.46628 15.6388 2.41398 15.5865C2.36168 15.5342 2.3202 15.4721 2.2919 15.4037C2.26359 15.3354 2.24902 15.2622 2.24902 15.1882C2.24902 15.1142 2.26359 15.041 2.2919 14.9727C2.3202 14.9043 2.36168 14.8423 2.41398 14.79L8.20436 9.00071L2.41398 3.21146Z" fill="white"/>
</svg>
