<svg width="789" height="118" viewBox="0 0 789 118" fill="none" xmlns="http://www.w3.org/2000/svg">
<g opacity="0.32">
<path d="M67.8564 47.7969C67.8468 47.2617 67.9326 46.7296 68.1094 46.2266L68.1904 46.0137C68.4218 45.449 68.7654 44.9383 69.2002 44.5146L69.0264 44.3359L69.2012 44.5146L69.2061 44.5098C69.5752 44.1276 70.0078 43.8147 70.4834 43.5859L70.6895 43.4932C71.1768 43.2886 71.6958 43.1737 72.2217 43.1523L72.4473 43.1484H72.4482C73.6587 43.159 74.8167 43.6534 75.6699 44.5244C76.5231 45.3955 77.0029 46.573 77.0029 47.8008V113.016C77.0119 113.854 76.7812 114.678 76.3398 115.387C75.8986 116.096 75.2652 116.661 74.5156 117.014L74.5039 117.019L74.4932 117.024C73.9442 117.352 73.3355 117.562 72.7051 117.641L72.4346 117.666H72.4336C71.4696 117.732 70.5173 117.436 69.7578 116.837L69.6084 116.713L69.5986 116.705L38.8643 92.5303L38.7109 92.4092L38.5557 92.5303L7.69727 116.704L7.69141 116.709C7.09796 117.201 6.39037 117.527 5.63867 117.658L5.31445 117.702C4.44257 117.788 3.56485 117.608 2.79297 117.188L2.78418 117.185L2.77637 117.181L2.49707 117.042C1.94982 116.745 1.47304 116.33 1.10059 115.826L0.922852 115.566C0.530156 114.945 0.301675 114.234 0.257812 113.501L0.250977 113.186V47.7969C0.241294 47.2617 0.32716 46.7296 0.503906 46.2266L0.584961 46.0137C0.787423 45.5195 1.07617 45.067 1.43652 44.6777L1.59473 44.5146L1.59863 44.5117C2.46031 43.6401 3.6278 43.1504 4.84473 43.1504C5.98555 43.1504 7.08305 43.5807 7.92578 44.3525L8.09082 44.5117H8.0918C8.52003 44.9418 8.85954 45.4542 9.09082 46.0186C9.32211 46.5831 9.4404 47.1894 9.43848 47.8008V103.255L9.84277 102.94L35.8574 82.6543L35.8564 82.6533C36.6286 82.068 37.5573 81.7356 38.5176 81.6963L38.71 81.6924H38.7129C39.6781 81.6811 40.6209 81.9784 41.4082 82.5391L41.5635 82.6543L67.4521 102.94L67.8564 103.257V47.7969Z" stroke="#CEEAF5" stroke-width="0.5"/>
<path d="M137.506 43.3135H137.509C141.65 43.3023 145.762 44.002 149.669 45.3799L150.448 45.6641C154.18 47.0736 157.667 49.0704 160.781 51.5791L161.399 52.0879C164.704 54.8674 167.51 58.2034 169.693 61.9492V61.9502C171.861 65.8382 173.269 70.1123 173.84 74.5391L173.842 74.5518L173.845 74.5645C173.988 75.1801 173.997 75.819 173.872 76.4365L173.811 76.7002C173.624 77.3982 173.269 78.0383 172.778 78.5625L172.765 78.5771L172.754 78.5928C172.419 79.0837 171.979 79.4907 171.47 79.7852L171.247 79.9053C170.642 80.2043 169.971 80.3407 169.3 80.3018L169.293 80.3008H110.076L110.074 80.5488C110.034 84.3039 110.78 88.0249 112.265 91.4668V91.4678C113.656 94.7642 115.658 97.7608 118.163 100.295V100.294C120.49 102.668 123.21 104.61 126.198 106.029L126.8 106.307H126.802C130.182 107.781 133.826 108.535 137.508 108.524C141.483 108.524 145.409 107.652 149.014 105.972L149.729 105.625C153.337 103.823 156.487 101.214 158.943 97.999L159.425 97.3486L159.429 97.3428C159.974 96.5367 160.521 95.6854 161.026 94.79C161.404 94.1206 161.759 93.4516 162.106 92.7656L162.453 92.0732L162.458 92.0615C162.701 91.4982 163.059 90.9932 163.508 90.5801C163.957 90.167 164.487 89.8549 165.063 89.6641L165.07 89.6611L165.078 89.6582C166.224 89.1982 167.5 89.1973 168.646 89.6562C169.199 89.9121 169.696 90.2771 170.109 90.7295C170.524 91.1839 170.846 91.7178 171.055 92.2998L171.058 92.3096L171.062 92.3174C171.315 92.8825 171.446 93.4965 171.446 94.1172C171.446 94.6604 171.346 95.1985 171.151 95.7031L171.062 95.917C170.077 98.1015 168.889 100.186 167.515 102.141L166.914 102.969C163.581 107.399 159.306 111.01 154.409 113.536L153.934 113.777C148.838 116.312 143.229 117.613 137.552 117.577L137.395 117.576L137.353 117.66C132.796 117.659 128.283 116.784 124.053 115.08L123.201 114.724H123.2C119.118 112.965 115.384 110.475 112.18 107.376L111.546 106.748C106.583 101.651 103.168 95.2268 101.698 88.2363L101.562 87.5576C100.218 80.5311 100.889 73.2669 103.49 66.6221L103.748 65.9814C107.305 57.3516 113.974 50.4311 122.381 46.6123L123.199 46.252L123.202 46.251C127.434 44.3972 131.98 43.4021 136.584 43.3184L137.506 43.3135ZM137.612 52.6221C132.243 52.6221 126.996 54.2116 122.514 57.1885L122.082 57.4814L122.081 57.4824C117.656 60.5893 114.24 64.9526 112.263 70.0215L112.453 70.0957V70.3623H163.223L163.088 70.0205C161.144 65.0909 157.833 60.8386 153.559 57.7734L153.142 57.4805C148.567 54.3158 143.154 52.6221 137.612 52.6221Z" stroke="#CEEAF5" stroke-width="0.5"/>
<path d="M234.74 52.4961C231.284 52.4961 227.862 53.1589 224.653 54.4473L224.015 54.7129L224.012 54.7139C220.975 56.063 218.189 57.9248 215.771 60.2178L215.293 60.6816L215.291 60.6846C212.955 63.0702 211.051 65.8497 209.664 68.8965L209.394 69.5098L209.393 69.5107C207.947 72.9422 207.203 76.6343 207.203 80.3643C207.203 83.8609 207.857 87.3239 209.13 90.5703L209.393 91.2168L209.394 91.2178C210.703 94.2934 212.544 97.1057 214.829 99.5234L215.292 100.002C217.804 102.536 220.761 104.575 224.012 106.014V106.013C227.357 107.523 230.973 108.321 234.636 108.357V108.359L234.637 108.358V108.359H234.72V108.358C238.156 108.361 241.559 107.7 244.745 106.41L245.384 106.142L245.386 106.141C248.623 104.701 251.567 102.662 254.064 100.129L254.063 100.128C256.419 97.7652 258.339 94.9984 259.732 91.957L260.004 91.3457L260.005 91.3438C261.45 87.9125 262.195 84.221 262.195 80.4912C262.195 76.9944 261.54 73.5308 260.268 70.2842L260.005 69.6377L260.004 69.6357L259.73 69.0225C258.329 65.9742 256.412 63.1945 254.064 60.8105H254.063C251.59 58.2679 248.678 56.2023 245.473 54.7158H245.474L245.467 54.7129L244.828 54.4473C241.62 53.1588 238.196 52.4961 234.74 52.4961ZM198.015 4.89941C198.006 4.367 198.09 3.838 198.262 3.33594L198.34 3.12207C198.536 2.6281 198.817 2.17367 199.167 1.77832L199.321 1.6123L199.325 1.6084C199.685 1.22472 200.109 0.910582 200.578 0.681641L200.782 0.588867C201.263 0.384502 201.777 0.271169 202.297 0.25293L202.521 0.250977H202.528C203.044 0.242405 203.557 0.329414 204.041 0.507812L204.247 0.589844C204.79 0.823296 205.278 1.16977 205.681 1.60645V1.60742L205.69 1.61719C206.071 1.98797 206.383 2.42439 206.609 2.90625L206.701 3.11523C206.904 3.60949 207.016 4.13627 207.033 4.66992L207.035 4.89844V55.5586L207.464 55.1172C210.929 51.5531 215.043 48.7008 219.578 46.7188V46.7197L219.585 46.7158C224.005 44.6316 228.796 43.482 233.663 43.333L234.637 43.3164H234.639C239.262 43.2787 243.845 44.1556 248.131 45.8945L248.984 46.2539L248.986 46.2549C253.346 48.1244 257.315 50.8164 260.682 54.1875V54.1885C264.014 57.586 266.688 61.5863 268.562 65.9824V65.9834C270.445 70.5751 271.415 75.4981 271.415 80.4697C271.415 85.4404 270.446 90.3622 268.563 94.9531C266.826 99.086 264.365 102.865 261.303 106.108L260.683 106.75C257.53 109.925 253.843 112.503 249.799 114.364L248.985 114.727C244.734 116.562 240.177 117.556 235.562 117.656L234.638 117.665H234.634C229.765 117.71 224.943 116.73 220.474 114.792L219.584 114.392C215.011 112.252 210.896 109.228 207.47 105.489L207.035 105.016V112.932C207.044 113.467 206.962 113.999 206.793 114.505L206.716 114.72C206.522 115.217 206.245 115.677 205.897 116.078L205.745 116.247C205.378 116.631 204.949 116.948 204.477 117.185L204.271 117.28C203.719 117.523 203.124 117.653 202.521 117.664C202.001 117.665 201.485 117.574 200.996 117.395L200.787 117.312C200.306 117.108 199.865 116.82 199.482 116.462L199.322 116.304L199.321 116.303L199.167 116.137C198.867 115.798 198.618 115.416 198.43 115.003L198.34 114.793C198.144 114.299 198.035 113.775 198.017 113.244L198.015 113.016V4.89941Z" stroke="#CEEAF5" stroke-width="0.5"/>
<path d="M300.99 43.3604L301.243 43.3584C301.807 43.3535 302.364 43.4712 302.879 43.7041C303.329 43.9081 303.738 44.1963 304.082 44.5527L304.226 44.709L304.234 44.7188C304.988 45.5032 305.435 46.5362 305.494 47.625L305.501 47.8438V113.181H305.5L305.501 113.185C305.51 113.703 305.43 114.219 305.264 114.708L305.188 114.916C304.997 115.397 304.726 115.84 304.386 116.226L304.235 116.387L304.233 116.389C303.845 116.795 303.38 117.117 302.866 117.336C302.417 117.528 301.937 117.638 301.451 117.66L301.242 117.664H301.016C300.578 117.653 300.145 117.575 299.731 117.432L299.526 117.354C299.052 117.162 298.615 116.886 298.236 116.539L298.078 116.386C297.719 116.017 297.427 115.589 297.214 115.119L297.127 114.916C296.937 114.435 296.832 113.924 296.815 113.407L296.813 113.185V47.6318C296.821 46.5363 297.221 45.4837 297.934 44.667L298.08 44.5068L298.084 44.5029C298.436 44.1207 298.855 43.8078 299.317 43.5791L299.519 43.4863C299.986 43.2853 300.484 43.1719 300.99 43.1504V43.3604ZM301.236 9.54785H301.244C302.002 9.53751 302.756 9.6644 303.469 9.9209L303.772 10.0381C304.474 10.3317 305.116 10.7495 305.672 11.2705L305.904 11.5L305.91 11.5059C306.457 12.0393 306.903 12.6676 307.229 13.3604L307.36 13.6611C307.651 14.3717 307.812 15.1286 307.837 15.8955L307.839 16.2246V16.2363C307.862 17.0058 307.744 17.7721 307.491 18.4961L307.375 18.8037C307.084 19.5147 306.666 20.1638 306.143 20.7188L305.912 20.9502L305.91 20.9521C304.735 22.0951 303.189 22.7578 301.568 22.8213L301.243 22.8252H301.237C300.496 22.8352 299.759 22.7151 299.06 22.4697L298.762 22.3564C298.074 22.0755 297.44 21.6759 296.889 21.1758L296.657 20.9551C296.053 20.3511 295.578 19.6282 295.26 18.8311C294.982 18.1335 294.829 17.3919 294.81 16.6416V16.3037C294.781 15.5284 294.889 14.7551 295.13 14.0205L295.241 13.708C295.52 12.9852 295.924 12.3197 296.434 11.7432L296.659 11.502L296.663 11.4971C297.176 10.9464 297.784 10.4958 298.455 10.167L298.747 10.0332C299.436 9.73971 300.171 9.57687 300.916 9.55078L301.236 9.54785Z" stroke="#CEEAF5" stroke-width="0.5"/>
<path d="M398.452 117.497C397.299 117.494 396.19 117.065 395.331 116.293L395.163 116.134L395.16 116.132L394.998 115.967C394.63 115.573 394.335 115.116 394.126 114.615C393.917 114.115 393.8 113.581 393.778 113.039L393.775 112.807V73.3721C393.801 69.5023 392.755 65.7076 390.763 62.416L390.352 61.7646C388.092 58.3274 384.869 55.6522 381.096 54.082H381.097C378.727 53.0663 376.189 52.5161 373.619 52.46L373.105 52.4561C370.349 52.4538 367.62 53.0053 365.076 54.0801C362.753 55.0359 360.629 56.4225 358.812 58.166L358.452 58.5195C356.558 60.4297 355.058 62.7022 354.041 65.2051C352.982 67.7946 352.438 70.5697 352.437 73.3721V112.973H352.436L352.437 112.979C352.451 113.597 352.338 114.211 352.106 114.783C351.904 115.284 351.614 115.742 351.251 116.137L351.091 116.302L351.084 116.31C350.526 116.903 349.824 117.335 349.052 117.564L348.717 117.65C347.926 117.821 347.106 117.778 346.341 117.526L346.017 117.405C345.268 117.095 344.615 116.59 344.122 115.944L343.922 115.659C343.477 114.975 343.219 114.185 343.172 113.37L343.165 113.02V47.9678C343.156 47.4367 343.238 46.9086 343.407 46.4072L343.485 46.1943C343.68 45.701 343.958 45.2463 344.306 44.8506L344.459 44.6846C344.826 44.3063 345.255 43.9961 345.727 43.7676L345.932 43.6748C346.415 43.4698 346.929 43.3514 347.451 43.3252L347.675 43.3193H347.685C348.224 43.2998 348.761 43.3811 349.27 43.5586L349.485 43.6406C350.057 43.8746 350.573 44.2279 351.001 44.6777V44.6787L351.011 44.6885C351.389 45.0451 351.698 45.4685 351.925 45.9375L352.017 46.1416C352.219 46.6231 352.332 47.1375 352.351 47.6592L352.353 47.8838V51.4697L352.774 51.0693C355.432 48.5498 358.536 46.5601 361.922 45.2041C365.303 43.8891 368.886 43.1944 372.504 43.1504H373.231C376.907 43.1372 380.55 43.8206 383.973 45.1631L384.654 45.4404C388.273 46.966 391.555 49.2084 394.307 52.0352V52.0342C396.836 54.6682 398.883 57.7332 400.356 61.0859L400.644 61.7607V61.7617C402.093 65.2438 402.877 68.97 402.956 72.7432L402.963 73.498V112.846L402.957 113.074C402.906 114.136 402.497 115.149 401.799 115.942L401.645 116.108C400.801 116.977 399.654 117.475 398.452 117.497Z" stroke="#CEEAF5" stroke-width="0.5"/>
<path d="M464.135 43.3135H464.138C468.953 43.2944 473.722 44.2294 478.177 46.0615L479.063 46.4395C483.476 48.391 487.465 51.1964 490.81 54.6943L491.47 55.4033C492.243 56.2944 492.666 57.4387 492.664 58.6201L492.658 58.8574V58.8643C492.643 59.5011 492.486 60.1266 492.199 60.6934C491.912 61.2599 491.503 61.7529 491.002 62.1367L490.986 62.1504C490.132 62.9254 489.028 63.3533 487.887 63.3584L487.658 63.3535H487.655C487.129 63.3359 486.611 63.2227 486.125 63.0195L485.919 62.9268C485.376 62.6655 484.891 62.2933 484.495 61.834H484.494C482.128 59.0794 479.221 56.8569 475.961 55.3076L475.304 55.0068C471.788 53.4262 467.984 52.6128 464.137 52.6191C460.682 52.5818 457.258 53.2444 454.064 54.5654L453.429 54.8379C450.404 56.1874 447.63 58.0493 445.228 60.3418L444.752 60.8066L444.75 60.8086C442.414 63.1942 440.51 65.9737 439.123 69.0205L438.853 69.6338L438.852 69.6348C437.406 73.066 436.662 76.7575 436.662 80.4873C436.662 83.9842 437.316 87.4477 438.589 90.6943L438.852 91.3408L438.853 91.3418C440.249 94.6219 442.251 97.6022 444.75 100.124V100.125C447.091 102.5 449.825 104.441 452.825 105.86L453.429 106.138H453.43C456.597 107.528 460.001 108.279 463.448 108.352L464.139 108.356H464.141C464.666 108.348 465.187 108.433 465.683 108.606L465.894 108.686C466.45 108.912 466.957 109.25 467.384 109.678V109.677C467.765 110.071 468.075 110.528 468.302 111.028L468.394 111.246C468.625 111.832 468.739 112.458 468.73 113.089C468.71 114.31 468.216 115.473 467.356 116.328C466.497 117.183 465.341 117.661 464.137 117.661H463.969C459.347 117.68 454.767 116.802 450.476 115.079L449.621 114.724C445.538 112.965 441.805 110.475 438.6 107.376L437.966 106.748C433.03 101.634 429.646 95.2006 428.205 88.2109L428.071 87.5322C426.756 80.5064 427.454 73.251 430.075 66.6211L430.335 65.9814H430.336C433.892 57.3517 440.561 50.4311 448.968 46.6123L449.786 46.252L449.789 46.251C454.035 44.3972 458.594 43.4023 463.211 43.3184L464.135 43.3135Z" stroke="#CEEAF5" stroke-width="0.5"/>
<path d="M553.332 43.3125C558.247 43.3125 563.112 44.3109 567.639 46.25V46.251C571.71 48.015 575.44 50.4911 578.658 53.5635L579.295 54.1855C582.42 57.3624 584.954 61.0806 586.778 65.1611L587.134 65.9814C589.05 70.5638 590.038 75.4896 590.038 80.4658C590.038 85.131 589.17 89.7518 587.482 94.0869L587.134 94.9502V94.9512C585.424 99.0894 582.976 102.87 579.915 106.106L579.295 106.746L579.294 106.747C576.192 109.894 572.574 112.469 568.603 114.356L567.804 114.725C563.517 116.576 558.92 117.571 554.266 117.656L553.334 117.661H553.331C548.721 117.68 544.154 116.802 539.876 115.079L539.024 114.724L538.206 114.357C530.076 110.606 523.557 104.008 519.85 95.7783L519.488 94.9492C517.572 90.367 516.584 85.4418 516.584 80.4658C516.584 75.4896 517.572 70.5638 519.488 65.9814L519.487 65.9805C521.362 61.5839 524.036 57.5834 527.369 54.1855C530.504 51.0175 534.178 48.4517 538.212 46.6104L539.023 46.251H539.024C543.551 44.3116 548.417 43.3125 553.332 43.3125ZM553.33 52.6172C549.926 52.5688 546.548 53.1924 543.383 54.4492L542.752 54.709L542.749 54.7109C539.724 56.0604 536.951 57.9223 534.548 60.2148L534.072 60.6787L534.07 60.6807C531.723 63.0645 529.806 65.8435 528.404 68.8916L528.131 69.5049V69.5078C526.686 72.9392 525.94 76.6304 525.94 80.3604C525.94 83.8573 526.594 87.3207 527.867 90.5674L528.131 91.2129V91.2148C529.542 94.4959 531.557 97.4755 534.068 99.9951V99.9961C536.4 102.414 539.133 104.396 542.142 105.852L542.747 106.136L542.752 106.138C546.143 107.601 549.792 108.355 553.479 108.355C556.934 108.355 560.357 107.693 563.565 106.404L564.204 106.138L564.207 106.137C567.254 104.788 570.043 102.912 572.45 100.595L572.927 100.125C575.271 97.7604 577.177 94.9923 578.557 91.9521L578.825 91.3408L578.826 91.3398C580.271 87.9086 581.016 84.2171 581.016 80.4873C581.016 76.9904 580.362 73.5269 579.089 70.2803L578.826 69.6338L578.825 69.6328L578.555 69.0195C577.26 66.176 575.515 63.565 573.39 61.29L572.928 60.8076L572.926 60.8057L572.447 60.3408C570.03 58.0479 567.244 56.1861 564.207 54.8369H564.206C560.781 53.3145 557.071 52.5568 553.33 52.6172Z" stroke="#CEEAF5" stroke-width="0.5"/>
<path d="M650.123 52.4521C646.658 52.4192 643.223 53.0823 640.016 54.3994L639.377 54.6719H639.376C636.351 56.0214 633.578 57.8833 631.175 60.1758L630.699 60.6396L630.697 60.6416C628.35 63.0256 626.433 65.8052 625.032 68.8535L624.759 69.4668L624.758 69.4678C623.392 72.675 622.651 76.1166 622.573 79.6035L622.566 80.2998C622.553 83.8049 623.207 87.2778 624.492 90.5283L624.758 91.1748L624.759 91.1758C626.17 94.4578 628.186 97.4379 630.698 99.958V99.959C633.04 102.334 635.772 104.275 638.772 105.694L639.376 105.971L639.378 105.972C642.772 107.45 646.431 108.205 650.127 108.19L650.126 108.189C653.578 108.208 656.999 107.546 660.196 106.241L660.833 105.972H660.834C663.882 104.623 666.671 102.746 669.078 100.429L669.554 99.96C671.898 97.5955 673.804 94.8271 675.184 91.7871L675.452 91.1748H675.453C676.898 87.7434 677.644 84.0513 677.644 80.3213C677.644 76.8246 676.988 73.3617 675.716 70.1152L675.453 69.4688L675.452 69.4668L675.182 68.8545C673.887 66.0107 672.143 63.3992 670.017 61.124L669.555 60.6426L669.553 60.6396L669.074 60.1748C666.818 58.0349 664.241 56.2708 661.438 54.9482L660.834 54.6719C657.462 53.1696 653.812 52.4125 650.128 52.4521H650.123ZM677.644 4.90039C677.638 4.36015 677.733 3.82444 677.921 3.32031L678.007 3.10645C678.252 2.54128 678.613 2.0351 679.065 1.62207L679.071 1.61719L679.077 1.61133C679.446 1.22908 679.879 0.91625 680.354 0.6875L680.561 0.594727C681.048 0.390179 681.567 0.2752 682.093 0.253906L682.318 0.25H682.324C682.846 0.242956 683.365 0.331986 683.854 0.510742L684.062 0.592773C684.544 0.797217 684.984 1.08721 685.363 1.44922L685.521 1.60938L685.525 1.6123C685.895 1.99025 686.196 2.43081 686.416 2.91309L686.506 3.12207C686.702 3.61582 686.811 4.14003 686.829 4.6709L686.832 4.89941V113.017C686.843 113.623 686.733 114.226 686.511 114.79C686.316 115.283 686.039 115.738 685.691 116.134L685.538 116.3C685.171 116.678 684.741 116.988 684.27 117.217L684.064 117.31C683.512 117.544 682.92 117.663 682.321 117.663C681.181 117.658 680.085 117.229 679.24 116.46L679.074 116.301L679.065 116.293L678.9 116.134C678.578 115.807 678.31 115.43 678.104 115.018L678.007 114.809C677.792 114.314 677.671 113.784 677.647 113.245L677.644 113.015V105.093L677.208 105.575C674.068 109.054 670.315 111.906 666.144 113.985L665.304 114.392C660.881 116.453 656.088 117.564 651.227 117.659L650.254 117.664H650.25C645.641 117.683 641.073 116.805 636.796 115.082L635.944 114.727C627.434 111.048 620.599 104.285 616.769 95.7812L616.407 94.9531L616.406 94.9512L616.045 94.0811C614.41 89.9992 613.524 85.6497 613.429 81.2461L613.421 80.3018V80.2988C613.392 75.3248 614.365 70.3972 616.282 65.8174C618.157 61.4202 620.829 57.4178 624.162 54.0195L624.163 54.0205C627.319 50.8593 631.005 48.2951 635.047 46.4463L635.86 46.0859L635.861 46.085C640.107 44.2312 644.666 43.2364 649.283 43.1523L650.208 43.1475H650.212C655.414 43.1105 660.563 44.2121 665.305 46.3779V46.3789C669.81 48.4531 673.859 51.4221 677.209 55.1104L677.644 55.5898V4.90039Z" stroke="#CEEAF5" stroke-width="0.5"/>
<path d="M752.515 43.3135H752.518C756.647 43.2992 760.746 43.9985 764.639 45.3789L765.414 45.6641L765.417 45.665C773.473 48.6461 780.23 54.4135 784.493 61.9492V61.9502C786.66 65.8387 788.067 70.1125 788.64 74.5391L788.641 74.5508L788.644 74.5625C788.782 75.1812 788.786 75.8221 788.655 76.4404L788.591 76.7041C788.398 77.4022 788.036 78.0403 787.538 78.5605L787.523 78.5762L787.512 78.5928C787.177 79.0838 786.737 79.4907 786.228 79.7852L786.005 79.9053C785.4 80.2043 784.729 80.3407 784.058 80.3018L784.051 80.3008H725.042L725.041 80.5498C725.023 84.0683 725.677 87.5549 726.966 90.8184L727.232 91.4678C729.967 97.8984 734.942 103.078 741.199 106.028L741.809 106.307H741.81C745.188 107.789 748.834 108.544 752.517 108.524C756.744 108.528 760.915 107.536 764.697 105.625L764.696 105.624C768.311 103.833 771.464 101.224 773.912 98.001L774.393 97.3477C774.975 96.5264 775.511 95.6713 775.995 94.7871L775.994 94.7861C776.494 93.9013 777.001 93.0054 777.424 92.0645L777.423 92.0635C777.646 91.5771 777.952 91.135 778.325 90.7559L778.49 90.5967C778.883 90.2355 779.334 89.9465 779.823 89.7432L780.035 89.6621H780.036C781.131 89.2701 782.328 89.297 783.4 89.7344L783.613 89.8271C784.669 90.3192 785.508 91.1846 785.977 92.2568L786.064 92.4736L786.154 92.6982C786.342 93.2054 786.438 93.7431 786.438 94.2861C786.438 94.829 786.342 95.3669 786.154 95.874L786.068 96.0898C785.098 98.2801 783.912 100.364 782.528 102.312L781.923 103.138V103.139C778.486 107.705 774.049 111.402 768.961 113.937C763.903 116.456 758.339 117.758 752.703 117.745L752.694 117.736L752.621 117.661L752.516 117.662C747.893 117.681 743.313 116.802 739.021 115.079L738.168 114.724H738.167C729.382 110.957 722.4 103.861 718.715 94.9521H718.716C716.833 90.3606 715.863 85.4383 715.863 80.4668C715.863 75.4952 716.833 70.5721 718.716 65.9805L718.715 65.9795C720.56 61.5877 723.206 57.5871 726.513 54.1855C729.648 51.0175 733.322 48.4517 737.355 46.6104L738.167 46.252L738.169 46.251C742.414 44.3973 746.974 43.4023 751.591 43.3184L752.515 43.3135ZM752.621 52.6221C747.252 52.6221 742.004 54.2117 737.522 57.1885L737.091 57.4814H737.09C732.649 60.5821 729.218 64.9462 727.229 70.0205L727.096 70.3623H778.229L778.097 70.0215C776.105 64.9234 772.638 60.5525 768.15 57.4814H768.151C763.576 54.3164 758.163 52.6221 752.621 52.6221Z" stroke="#CEEAF5" stroke-width="0.5"/>
</g>
</svg>
