<svg width="12" height="12" viewBox="0 0 12 12" fill="none" xmlns="http://www.w3.org/2000/svg">
<path d="M0.968387 0.892215C1.03806 0.82237 1.12082 0.766956 1.21194 0.729146C1.30305 0.691337 1.40074 0.671875 1.49939 0.671875C1.59804 0.671875 1.69572 0.691337 1.78684 0.729146C1.87796 0.766956 1.96072 0.82237 2.03039 0.892215L5.99939 4.86272L9.96839 0.892215C10.0381 0.822483 10.1209 0.767169 10.212 0.72943C10.3031 0.691692 10.4008 0.672268 10.4994 0.672268C10.598 0.672268 10.6957 0.691692 10.7868 0.72943C10.8779 0.767169 10.9607 0.822483 11.0304 0.892215C11.1001 0.961947 11.1554 1.04473 11.1932 1.13584C11.2309 1.22695 11.2503 1.3246 11.2503 1.42322C11.2503 1.52183 11.2309 1.61948 11.1932 1.71059C11.1554 1.8017 11.1001 1.88448 11.0304 1.95422L7.05989 5.92322L11.0304 9.89222C11.1001 9.96195 11.1554 10.0447 11.1932 10.1358C11.2309 10.2269 11.2503 10.3246 11.2503 10.4232C11.2503 10.5218 11.2309 10.6195 11.1932 10.7106C11.1554 10.8017 11.1001 10.8845 11.0304 10.9542C10.9607 11.0239 10.8779 11.0793 10.7868 11.117C10.6957 11.1547 10.598 11.1742 10.4994 11.1742C10.4008 11.1742 10.3031 11.1547 10.212 11.117C10.1209 11.0793 10.0381 11.0239 9.96839 10.9542L5.99939 6.98372L2.03039 10.9542C1.96066 11.0239 1.87787 11.0793 1.78676 11.117C1.69565 11.1547 1.598 11.1742 1.49939 11.1742C1.40077 11.1742 1.30312 11.1547 1.21201 11.117C1.1209 11.0793 1.03812 11.0239 0.968387 10.9542C0.898655 10.8845 0.843341 10.8017 0.805602 10.7106C0.767863 10.6195 0.74844 10.5218 0.74844 10.4232C0.74844 10.3246 0.767863 10.2269 0.805602 10.1358C0.843341 10.0447 0.898655 9.96195 0.968387 9.89222L4.93889 5.92322L0.968387 1.95422C0.898542 1.88455 0.843128 1.80178 0.805318 1.71067C0.767508 1.61955 0.748047 1.52187 0.748047 1.42322C0.748047 1.32456 0.767508 1.22688 0.805318 1.13576C0.843128 1.04465 0.898542 0.961884 0.968387 0.892215Z" fill="#E71B1B"/>
</svg>
